<svg width="31" height="31" viewBox="0 0 31 31" fill="none" xmlns="http://www.w3.org/2000/svg">
    <path d="M3.875 27.125V9.04166H11.625V6.45833L15.5 2.58333L19.375 6.45833V14.2083H27.125V27.125H3.875ZM6.45833 24.5417H9.04167V21.9583H6.45833V24.5417ZM6.45833 19.375H9.04167V16.7917H6.45833V19.375ZM6.45833 14.2083H9.04167V11.625H6.45833V14.2083ZM14.2083 24.5417H16.7917V21.9583H14.2083V24.5417ZM14.2083 19.375H16.7917V16.7917H14.2083V19.375ZM14.2083 14.2083H16.7917V11.625H14.2083V14.2083ZM14.2083 9.04166H16.7917V6.45833H14.2083V9.04166ZM21.9583 24.5417H24.5417V21.9583H21.9583V24.5417ZM21.9583 19.375H24.5417V16.7917H21.9583V19.375Z" fill="black"/>
</svg>
