<svg width="35" height="35" viewBox="0 0 35 35" fill="none" xmlns="http://www.w3.org/2000/svg">
    <path d="M27.6094 5.8125H7.2656C6.10942 5.8125 5.0006 6.27179 4.18306 7.08933C3.36552 7.90687 2.90623 9.0157 2.90623 10.1719V24.7031C2.90623 25.8593 3.36552 26.9681 4.18306 27.7857C5.0006 28.6032 6.10942 29.0625 7.2656 29.0625H27.6094C28.7655 29.0625 29.8744 28.6032 30.6919 27.7857C31.5094 26.9681 31.9687 25.8593 31.9687 24.7031V10.1719C31.9687 9.0157 31.5094 7.90687 30.6919 7.08933C29.8744 6.27179 28.7655 5.8125 27.6094 5.8125ZM26.6358 8.71875L17.4375 15.6211L8.2392 8.71875H26.6358ZM27.6094 26.1563H7.2656C6.88021 26.1563 6.5106 26.0032 6.23809 25.7306C5.96557 25.4581 5.81248 25.0885 5.81248 24.7031V10.5352L16.5656 18.6C16.8171 18.7886 17.1231 18.8906 17.4375 18.8906C17.7519 18.8906 18.0578 18.7886 18.3094 18.6L29.0625 10.5352V24.7031C29.0625 25.0885 28.9094 25.4581 28.6369 25.7306C28.3644 26.0032 27.9947 26.1563 27.6094 26.1563Z" fill="black"/>
</svg>
