<svg width="283" height="283" viewBox="0 0 283 283" fill="none" xmlns="http://www.w3.org/2000/svg">
    <path d="M201.756 249.998C157.547 249.941 115.166 232.318 83.9051 200.996C52.6446 169.673 35.0573 127.207 35 82.9105C35 69.6737 40.2479 56.9791 49.5891 47.6193C58.9304 38.2595 71.5998 33.0012 84.8104 33.0012C87.6078 32.9799 90.4005 33.2343 93.1482 33.7607C95.8045 34.1546 98.4158 34.8087 100.945 35.7137C102.723 36.339 104.308 37.4186 105.542 38.8457C106.777 40.2729 107.618 41.9982 107.983 43.8511L122.818 108.95C123.218 110.717 123.17 112.556 122.678 114.3C122.186 116.044 121.266 117.636 120.002 118.932C118.595 120.451 118.487 120.559 105.168 127.503C115.833 150.948 134.547 169.776 157.902 180.559C164.94 167.105 165.048 166.997 166.564 165.586C167.858 164.32 169.447 163.398 171.187 162.906C172.927 162.413 174.763 162.365 176.526 162.765L241.496 177.63C243.286 178.046 244.941 178.911 246.305 180.145C247.669 181.379 248.697 182.94 249.293 184.682C250.207 187.257 250.895 189.907 251.35 192.602C251.786 195.329 252.003 198.087 252 200.848C251.8 214.028 246.405 226.594 236.992 235.803C227.578 245.011 214.912 250.114 201.756 249.998V249.998Z" fill="black"/>
</svg>
